# xmcd
#
# Track frame offsets: 
#        150
#        18102
#        38330
#        53592
#        70322
#        84735
#        101885
#        122852
#        136340
#        154430
#        170157
#        183895
#        200830
#        213212
#        232297
#        249980
#        268785
#        293217
#        308347
#        324737
#
# Disc length: 4561 seconds
#
# Revision: 17
# Processed by: cddbd v1.5.2PL0 Copyright (c) Steve Scherf et al.
# Submitted via: ExactAudioCopyFreeDBPlugin 1.0
#
DISCID=2511cf14
DTITLE=BONNIE RAITT - The Bonnie Raitt Collection
DYEAR=1990
DGENRE=Blues
TTITLE0=Finest Lovin' Man [Edit]
TTITLE1=Give It Up Or Let Me Go
TTITLE2=Women Be Wise [Live Duet With SIPPIE WALLACE]
TTITLE3=Under The Falling Sky
TTITLE4=Love Me Like A Man
TTITLE5=Love Has No Pride
TTITLE6=I Feel The Same
TTITLE7=Guilty
TTITLE8=Angel From Montgomery [Edited Live Duet With JOHN PRINE]
TTITLE9=What Is Success
TTITLE10=My First Night Alone Without You
TTITLE11=Sugar Mama
TTITLE12=Louise
TTITLE13=About To Make Me Leave Home
TTITLE14=Runaway
TTITLE15=The Glow
TTITLE16=(Goin') Wild For You Baby
TTITLE17=Willya Wontcha
TTITLE18=True Love Is Hard To Find [Edit]
TTITLE19=No Way To Treat A Lady
EXTD=
EXTT0=
EXTT1=
EXTT2=
EXTT3=
EXTT4=
EXTT5=
EXTT6=
EXTT7=
EXTT8=
EXTT9=
EXTT10=
EXTT11=
EXTT12=
EXTT13=
EXTT14=
EXTT15=
EXTT16=
EXTT17=
EXTT18=
EXTT19=
PLAYORDER=
